<svg xmlns="http://www.w3.org/2000/svg" xmlns:xlink="http://www.w3.org/1999/xlink" width="18" height="16" viewBox="0 0 18 16"><defs><path id="jkt3a" d="M459.5 181.87L457.5 183l1.99 1.13a1 1 0 0 1 0 1.74l-7 4a1 1 0 0 1-1 0l-7-4a1 1 0 0 1 0-1.74l1.98-1.13-1.98-1.13a1 1 0 0 1 0-1.74l7-4a1 1 0 0 1 1 0l7 4a1 1 0 0 1 0 1.74zM447.02 185l4.98 2.85 4.98-2.85-1.48-.85-3 1.72a1 1 0 0 1-1 0l-3-1.72zm4.98-6.85l-4.98 2.85 3.5 2 1.48.85 1.48-.85 3.5-2z"/></defs><g><g transform="translate(-443 -175)"><use fill="#383e42" xlink:href="#jkt3a"/></g></g></svg>