<?xml version="1.0" encoding="UTF-8"?><!DOCTYPE svg PUBLIC "-//W3C//DTD SVG 1.1//EN" "http://www.w3.org/Graphics/SVG/1.1/DTD/svg11.dtd"><svg xmlns="http://www.w3.org/2000/svg" xmlns:xlink="http://www.w3.org/1999/xlink"><defs>
        <style>
            .cls-1{fill:none;stroke:#000;stroke-linejoin:round;stroke-width:2px}
        </style>
    
        <path id="a" d="M459.5 181.87l-2 1.13 1.99 1.13a1 1 0 0 1 0 1.74l-7 4a1 1 0 0 1-1 0l-7-4a1 1 0 0 1 0-1.74l1.98-1.13-1.98-1.13a1 1 0 0 1 0-1.74l7-4a1 1 0 0 1 1 0l7 4a1 1 0 0 1 0 1.74zM447.02 185l4.98 2.85 4.98-2.85-1.48-.85-3 1.72a1 1 0 0 1-1 0l-3-1.72zm4.98-6.85l-4.98 2.85 3.5 2 1.48.85 1.48-.85 3.5-2z"/>
    </defs><symbol id="icon-arrow" viewBox="0 0 16 16">
    <title/>
    <path d="M16 8l-6-5v3C5.5 6 2 7 0 12c3-2.5 6-3 10-2v3l6-5zm0 0" fill-rule="evenodd"/>
</symbol><symbol id="icon-buffer" viewBox="0 0 512 512">
    <path d="M70.7 164.5l169.2 81.7c4.4 2.1 10.3 3.2 16.1 3.2s11.7-1.1 16.1-3.2l169.2-81.7c8.9-4.3 8.9-11.3 0-15.6L272.1 67.2c-4.4-2.1-10.3-3.2-16.1-3.2s-11.7 1.1-16.1 3.2L70.7 148.9c-8.9 4.3-8.9 11.3 0 15.6z"/>
    <path d="M441.3 248.2s-30.9-14.9-35-16.9-5.2-1.9-9.5.1S272 291.6 272 291.6c-4.5 2.1-10.3 3.2-16.1 3.2s-11.7-1.1-16.1-3.2c0 0-117.3-56.6-122.8-59.3-6-2.9-7.7-2.9-13.1-.3l-33.4 16.1c-8.9 4.3-8.9 11.3 0 15.6l169.2 81.7c4.4 2.1 10.3 3.2 16.1 3.2s11.7-1.1 16.1-3.2l169.2-81.7c9.1-4.2 9.1-11.2.2-15.5z"/>
    <path d="M441.3 347.5s-30.9-14.9-35-16.9-5.2-1.9-9.5.1S272.1 391 272.1 391c-4.5 2.1-10.3 3.2-16.1 3.2s-11.7-1.1-16.1-3.2c0 0-117.3-56.6-122.8-59.3-6-2.9-7.7-2.9-13.1-.3l-33.4 16.1c-8.9 4.3-8.9 11.3 0 15.6l169.2 81.7c4.4 2.2 10.3 3.2 16.1 3.2s11.7-1.1 16.1-3.2l169.2-81.7c9-4.3 9-11.3.1-15.6z"/>
</symbol><symbol id="icon-facebook" viewBox="0 0 10 19">
    <title>
        facebook
    </title>
    <path d="M9.766.157v2.946H8.014c-.64 0-1.071.134-1.295.402-.223.268-.335.67-.335 1.205v2.11h3.27l-.435 3.303H6.384v8.471H2.97v-8.47H.123V6.82H2.97V4.387c0-1.384.387-2.457 1.161-3.22C4.904.404 5.934.023 7.222.023c1.093 0 1.941.045 2.544.134z" fill-rule="evenodd"/>
</symbol><symbol id="icon-home" viewBox="0 0 48 48">
    <path d="M42 48H28V35h-8v13H6V27a1 1 0 1 1 2 0v19h10V33h12v13h10V28a1 1 0 1 1 2 0v20z"/>
    <path d="M47 27a.997.997 0 0 1-.691-.277L24 5.384 1.691 26.723a1 1 0 0 1-1.383-1.445L24 2.616l23.691 22.661A1 1 0 0 1 47 27z"/>
    <path d="M39 15a1 1 0 0 1-1-1V8h-6a1 1 0 1 1 0-2h8v8a1 1 0 0 1-1 1z"/>
</symbol><symbol id="icon-jobs" viewBox="0 0 64 64">
    <path d="M51 49V28c0-1.4 1.1-2.5 2.5-2.5S56 26.6 56 28v21.8c0 2.5-2.7 5.2-5.1 5.2H13.6C11.1 55 9 52.3 9 49.8V12.3C9 10 10.9 8 13.1 8h27.7c2.5 0 5.2 1.8 5.2 4.3v37.2s-.2 5.5 4.9 5.5"/>
    <path d="M51 28c0-1.4 1.1-2.5 2.5-2.5H46v24s-.2 5.5 4.9 5.5l.1-6V28z"/>
    <path d="M29 14.7V23s4.4.6 4.4-1.6c0-2.8-2.8-2.1-3.5-2.4.7-.2 2.8-.2 2.8-2.1 0-2.5-3.7-2.2-3.7-2.2z" stroke-linecap="round" stroke-linejoin="round" stroke-miterlimit="10" stroke-width="2"/>
    <path d="M26 20.5c0 1.4-1.1 2.5-2.5 2.5S21 21.9 21 20.5v-3.3c0-1.4 1.1-2.5 2.5-2.5s2.5 1.1 2.5 2.5v3.3z" stroke-linecap="round" stroke-linejoin="round" stroke-miterlimit="10" stroke-width="2"/>
    <path d="M13.6 21.5c.4.9 1.1 1.6 2.1 1.6 1.4 0 2.3-1.1 2.3-2.5V15h-2" stroke-linecap="round" stroke-linejoin="round" stroke-miterlimit="10" stroke-width="2"/>
    <path d="M51 49V28c0-1.4 1.1-2.5 2.5-2.5S56 26.6 56 28v21.8c0 2.5-2.7 5.2-5.1 5.2H13.6C11.1 55 9 52.3 9 49.8V12.3C9 10 10.9 8 13.1 8h27.7c2.5 0 5.2 1.8 5.2 4.3v37.2s-.2 5.5 4.9 5.5" stroke-linecap="round" stroke-linejoin="round" stroke-miterlimit="10" stroke-width="2"/>
    <path d="M40.8 17.2c0-1.4-1.1-2.5-2.4-2.5-1.4 0-2.4 1.1-2.4 2.5 0 .9 4.9 2 4.9 3.3 0 1.4-1.1 2.5-2.4 2.5-1.4 0-2.4-1.1-2.4-2.5" stroke-linecap="round" stroke-linejoin="round" stroke-miterlimit="10" stroke-width="2"/>
    <path stroke-linecap="round" stroke-linejoin="round" stroke-miterlimit="10" stroke-width="2" d="M15 28h6"/>
    <path stroke-linecap="round" stroke-linejoin="round" stroke-miterlimit="10" stroke-width="2" d="M15 31h10"/>
    <path stroke-linecap="round" stroke-linejoin="round" stroke-miterlimit="10" stroke-width="2" d="M15 34h9"/>
    <path stroke-linecap="round" stroke-linejoin="round" stroke-miterlimit="10" stroke-width="2" d="M30 43h6"/>
    <path stroke-linecap="round" stroke-linejoin="round" stroke-miterlimit="10" stroke-width="2" d="M30 46h10"/>
    <path stroke-linecap="round" stroke-linejoin="round" stroke-miterlimit="10" stroke-width="2" d="M30 49h9"/>
    <path stroke-linecap="round" stroke-linejoin="round" stroke-miterlimit="10" stroke-width="2" d="M30 28h7"/>
    <path stroke-linecap="round" stroke-linejoin="round" stroke-miterlimit="10" stroke-width="2" d="M30 31h10"/>
    <path stroke-linecap="round" stroke-linejoin="round" stroke-miterlimit="10" stroke-width="2" d="M30 37h10"/>
    <path stroke-linecap="round" stroke-linejoin="round" stroke-miterlimit="10" stroke-width="2" d="M30 34h9"/>
    <path stroke-linecap="round" stroke-linejoin="round" stroke-miterlimit="10" stroke-width="2" d="M15 40h7"/>
    <path stroke-linecap="round" stroke-linejoin="round" stroke-miterlimit="10" stroke-width="2" d="M15 43h10"/>
    <path stroke-linecap="round" stroke-linejoin="round" stroke-miterlimit="10" stroke-width="2" d="M15 49h10"/>
    <path stroke-linecap="round" stroke-linejoin="round" stroke-miterlimit="10" stroke-width="2" d="M15 46h9"/>
</symbol><symbol id="icon-link" viewBox="0 0 48 48">
    <path d="M14.101 42.314a6.955 6.955 0 0 1-4.95-2.051L7.736 38.85c-2.729-2.729-2.729-7.171 0-9.899l9.192-9.192c1.322-1.322 3.08-2.051 4.95-2.051s3.628.729 4.949 2.051l1.414 1.414a.999.999 0 1 1-1.414 1.414l-1.414-1.414a4.968 4.968 0 0 0-3.535-1.465 4.969 4.969 0 0 0-3.536 1.465L9.15 30.364a5.006 5.006 0 0 0 0 7.071l1.414 1.414a4.969 4.969 0 0 0 3.536 1.465 4.968 4.968 0 0 0 3.535-1.465L24 32.485a.999.999 0 1 1 1.414 1.414l-6.364 6.364a6.947 6.947 0 0 1-4.949 2.051z"/>
    <path d="M26.121 30.293a6.953 6.953 0 0 1-4.949-2.051.999.999 0 1 1 1.414-1.414 4.968 4.968 0 0 0 3.535 1.465 4.969 4.969 0 0 0 3.536-1.465l9.192-9.192a5.005 5.005 0 0 0 0-7.07L37.436 9.15a5.006 5.006 0 0 0-7.071 0L24 15.515a.999.999 0 1 1-1.414-1.414l6.364-6.364a7.008 7.008 0 0 1 9.899 0l1.414 1.415c2.729 2.729 2.729 7.17 0 9.898l-9.192 9.192a6.954 6.954 0 0 1-4.95 2.051z"/>
</symbol><symbol id="icon-paperplane" viewBox="0 0 32 32">
    <path d="M31.543.16a1.002 1.002 0 0 0-1.098.008l-30 20a.995.995 0 0 0-.439.936.995.995 0 0 0 .623.824l7.824 3.131 3.679 6.438a1 1 0 0 0 .857.504H13c.351 0 .677-.186.857-.486l2.077-3.463 9.695 3.877a.992.992 0 0 0 .861-.058c.264-.148.445-.408.496-.707l5-30A1.002 1.002 0 0 0 31.543.16zM3.136 20.777L26.311 5.326 9.461 23.363c-.089-.053-.168-.123-.266-.162l-6.059-2.424zm7.053 3.289l-.007-.01L29.125 3.781 12.976 28.943l-2.787-4.877zm15.028 5.543l-8.541-3.416a1.987 1.987 0 0 0-.623-.119L29.205 5.686l-3.988 23.923z"/>
</symbol><symbol id="icon-recent" viewBox="0 0 512 512">
    <path d="M294.488 127.433V0l170.799 170.802H337.856c-23.913 0-43.368-19.456-43.368-43.369zm170.799 63.385V512H46.713V0h227.759v127.433c0 34.951 28.434 63.386 63.385 63.386h127.43zM80.773 66.912c0 5.527 4.482 10.01 10.01 10.01h144.679c5.523 0 10.007-4.483 10.007-10.01 0-5.525-4.483-10.008-10.007-10.008H90.783c-5.527 0-10.01 4.483-10.01 10.008zm0 94.546c0 5.527 4.482 10.01 10.01 10.01h144.679c5.523 0 10.007-4.483 10.007-10.01 0-5.525-4.483-10.006-10.007-10.006H90.783c-5.527-.001-10.01 4.481-10.01 10.006zm350.463 283.636c0-5.523-4.483-10.006-10.01-10.006H90.783c-5.527 0-10.01 4.483-10.01 10.006 0 5.527 4.482 10.01 10.01 10.01h330.443c5.527 0 10.01-4.483 10.01-10.01zm0-94.546c0-5.523-4.483-10.006-10.01-10.006H90.783c-5.527 0-10.01 4.483-10.01 10.006 0 5.527 4.482 10.01 10.01 10.01h330.443c5.527 0 10.01-4.483 10.01-10.01zm0-94.545c0-5.523-4.483-10.006-10.01-10.006H90.783c-5.527 0-10.01 4.483-10.01 10.006 0 5.527 4.482 10.01 10.01 10.01h330.443c5.527 0 10.01-4.483 10.01-10.01z"/>
</symbol><symbol id="icon-search" viewBox="0 0 32 32">
    <title/>
    <path d="M19.427 20.427a8.5 8.5 0 1 1 1.083-.917l5.998 5.998a.699.699 0 0 1-.008.992.7.7 0 0 1-.992.008l-6.08-6.08zM14.5 21a7.5 7.5 0 1 0 0-15 7.5 7.5 0 0 0 0 15z" fill-rule="evenodd"/>
</symbol><symbol id="icon-settings" viewBox="0 0 64 64">
    <circle cx="32" cy="32" r="4.167"/>
    <path d="M55.192 27.87l-5.825-1.092a17.98 17.98 0 0 0-1.392-3.371l3.37-4.927c.312-.456.248-1.142-.143-1.532l-4.155-4.156c-.391-.391-1.076-.454-1.532-.143l-4.928 3.372a18.023 18.023 0 0 0-3.473-1.42l-1.086-5.794c-.103-.543-.632-.983-1.185-.983h-5.877c-.553 0-1.082.44-1.185.983l-1.097 5.851c-1.165.356-2.282.82-3.334 1.392l-4.866-3.329c-.456-.312-1.142-.248-1.532.143l-4.156 4.156c-.391.391-.454 1.076-.143 1.532l3.35 4.896a18.055 18.055 0 0 0-1.371 3.331L8.808 27.87c-.542.103-.982.632-.982 1.185v5.877c0 .553.44 1.082.982 1.185l5.82 1.091a18.013 18.013 0 0 0 1.401 3.399l-3.312 4.842c-.312.456-.248 1.142.143 1.532l4.155 4.156c.391.391 1.076.454 1.532.143l4.84-3.313a18.086 18.086 0 0 0 3.299 1.375l1.097 5.852c.103.542.632.982 1.185.982h5.877c.553 0 1.082-.44 1.185-.982l1.086-5.796a18.174 18.174 0 0 0 3.438-1.401l4.902 3.354c.456.312 1.142.248 1.532-.143l4.155-4.154c.391-.391.454-1.076.143-1.532l-3.335-4.874a18.016 18.016 0 0 0 1.423-3.44l5.819-1.091c.542-.103.982-.632.982-1.185v-5.877c0-.553-.441-1.082-.983-1.185zM32 42.085c-5.568 0-10.083-4.515-10.083-10.086 0-5.567 4.515-10.083 10.083-10.083 5.57 0 10.086 4.516 10.086 10.083 0 5.571-4.517 10.086-10.086 10.086z"/>
</symbol><symbol id="icon-shape" viewBox="0 0 16 16">
    <title/>
    <path d="M8 11.953l-4.977 4.04 2.01-6.469L.015 6.03h6.038L8 0l1.984 6.03h6.081l-5.098 3.494 2.07 6.47zm.118-.988l3.85 3.03-1.581-4.852 3.898-2.62h-4.65L8.118 2l-1.49 4.523H2.012l3.837 2.62-1.538 4.852zm0 0" fill-rule="evenodd"/>
</symbol><symbol id="icon-share" viewBox="0 0 512 512">
    <g>
        <path d="M94 350c-51.8 0-94-42.2-94-94s42.2-94 94-94 94 42.2 94 94-42.2 94-94 94zm0-166.9c-40.2 0-72.9 32.7-72.9 72.9s32.7 72.9 72.9 72.9 72.9-32.7 72.9-72.9-32.7-72.9-72.9-72.9z"/>
        <path d="M418 196.3c-51.8 0-94-42.2-94-94s42.2-94 94-94 94 42.2 94 94-42.2 94-94 94zm0-166.9c-40.2 0-72.9 32.7-72.9 72.9s32.7 72.9 72.9 72.9 72.9-32.7 72.9-72.9-32.7-72.9-72.9-72.9z"/>
        <path d="M418 503.7c-51.8 0-94-42.2-94-94s42.2-94 94-94 94 42.2 94 94-42.2 94-94 94zm0-166.9c-40.2 0-72.9 32.7-72.9 72.9s32.7 72.9 72.9 72.9 72.9-32.7 72.9-72.9-32.7-72.9-72.9-72.9z"/>
        <path d="M161.7 217.8c-4 0-7.9-2.3-9.6-6.3-2.4-5.3 0-11.6 5.3-13.9l172.8-76.9c5.3-2.4 11.6 0 13.9 5.3 2.4 5.3 0 11.6-5.3 13.9l-172.8 77c-1.4.6-2.8.9-4.3.9z"/>
        <path d="M334.6 392.2c-1.5 0-3-.3-4.4-1L159 311.9c-5.3-2.4-7.6-8.7-5.1-14s8.7-7.6 14-5.1L339 372.1c5.3 2.4 7.6 8.7 5.1 14-1.8 3.8-5.6 6.1-9.5 6.1z"/>
    </g>
</symbol><symbol id="icon-speech" viewBox="0 0 32 32">
    
    <title/>
    <g data-name="425-Speech Bubble Communication" id="_425-Speech_Bubble_Communication">
        <path class="cls-1" d="M1 2v22h20v6l6-6h4V2H1z"/>
        <path class="cls-1" d="M13 7h14"/>
        <path class="cls-1" d="M13 19h14"/>
        <path class="cls-1" d="M5 13h22"/>
    </g>
</symbol><symbol id="icon-task" viewBox="0 0 18 16">
    
    <use xlink:href="#a" transform="translate(-443 -175)"/>
</symbol><symbol id="icon-twitter" viewBox="0 0 48 48">
    <path d="M24 8.307c-8.653 0-15.694 7.04-15.694 15.693S15.346 39.693 24 39.693 39.694 32.653 39.694 24 32.654 8.307 24 8.307zm-1.165 19.625h5.545c1.22 0 2.213.992 2.213 2.213s-.993 2.213-2.213 2.213h-5.545a5.434 5.434 0 0 1-5.428-5.427v-9.076c0-1.221.993-2.214 2.214-2.214s2.213.993 2.213 2.214v1.858h6.546c1.22 0 2.213.993 2.213 2.214S29.6 24.14 28.38 24.14h-6.546v2.79c0 .552.45 1.002 1.001 1.002zm1.028-16.525a.35.35 0 0 1-.332.367c-.523.027-1.05.087-1.57.18a.35.35 0 0 1-.123-.69 13.389 13.389 0 0 1 1.658-.189c.169-.016.357.138.367.332zm-8.616 2.944c1.463-1.261 3.275-2.221 5.238-2.776a.35.35 0 0 1 .19.674c-1.865.527-3.585 1.438-4.971 2.633a.35.35 0 0 1-.457-.531z"/>
</symbol><symbol id="icon-workspace" viewBox="0 0 32 32">
    <g>
        <path d="M12 0H2a2 2 0 0 0-2 2v10a2 2 0 0 0 2 2h10a2 2 0 0 0 2-2V2a2 2 0 0 0-2-2zm0 12H2V2h10v10z"/>
        <path d="M30 0H20a2 2 0 0 0-2 2v10a2 2 0 0 0 2 2h10a2 2 0 0 0 2-2V2a2 2 0 0 0-2-2zm0 12H20V2h10v10z"/>
        <path d="M30 18H20a2 2 0 0 0-2 2v10a2 2 0 0 0 2 2h10a2 2 0 0 0 2-2V20a2 2 0 0 0-2-2zm0 12H20V20h10v10z"/>
        <path d="M12 18H2a2 2 0 0 0-2 2v10a2 2 0 0 0 2 2h10a2 2 0 0 0 2-2V20a2 2 0 0 0-2-2zm0 12H2V20h10v10z"/>
    </g>
</symbol></svg>